solid OpenSCAD_Model
  facet normal -0 0.980581 0.196116
    outer loop
      vertex -30 -20 10
      vertex -30 -30 60
      vertex -20 -20 10
    endloop
  endfacet
  facet normal 0.980581 0 0.196116
    outer loop
      vertex -20 -20 10
      vertex -30 -30 60
      vertex -20 -30 10
    endloop
  endfacet
  facet normal -0 0.980581 0.196116
    outer loop
      vertex -30 0 10
      vertex -30 -10 60
      vertex -20 0 10
    endloop
  endfacet
  facet normal 0 -0.980581 0.196116
    outer loop
      vertex -30 -10 60
      vertex -30 -20 10
      vertex -20 -20 10
    endloop
  endfacet
  facet normal 0.980581 0 0.196116
    outer loop
      vertex -20 0 10
      vertex -30 -10 60
      vertex -20 -20 10
    endloop
  endfacet
  facet normal -0 0.980581 0.196116
    outer loop
      vertex -30 20 10
      vertex -30 10 60
      vertex -20 20 10
    endloop
  endfacet
  facet normal 0 -0.980581 0.196116
    outer loop
      vertex -30 10 60
      vertex -30 0 10
      vertex -20 0 10
    endloop
  endfacet
  facet normal 0.980581 0 0.196116
    outer loop
      vertex -20 20 10
      vertex -30 10 60
      vertex -20 0 10
    endloop
  endfacet
  facet normal 0 -0.980581 0.196116
    outer loop
      vertex -30 30 60
      vertex -30 20 10
      vertex -20 20 10
    endloop
  endfacet
  facet normal 0.980581 0 0.196116
    outer loop
      vertex -20 30 10
      vertex -30 30 60
      vertex -20 20 10
    endloop
  endfacet
  facet normal 0 0.980581 0.196116
    outer loop
      vertex 0 -20 10
      vertex -20 -20 10
      vertex -10 -30 60
    endloop
  endfacet
  facet normal 0.980581 0 0.196116
    outer loop
      vertex 0 -20 10
      vertex -10 -30 60
      vertex 0 -30 10
    endloop
  endfacet
  facet normal -0.980581 0 0.196116
    outer loop
      vertex -20 -20 10
      vertex -20 -30 10
      vertex -10 -30 60
    endloop
  endfacet
  facet normal 0 0.980581 0.196116
    outer loop
      vertex 0 0 10
      vertex -20 0 10
      vertex -10 -10 60
    endloop
  endfacet
  facet normal -0.980581 0 0.196116
    outer loop
      vertex -20 0 10
      vertex -20 -20 10
      vertex -10 -10 60
    endloop
  endfacet
  facet normal 0 -0.980581 0.196116
    outer loop
      vertex -10 -10 60
      vertex -20 -20 10
      vertex 0 -20 10
    endloop
  endfacet
  facet normal 0.980581 0 0.196116
    outer loop
      vertex 0 0 10
      vertex -10 -10 60
      vertex 0 -20 10
    endloop
  endfacet
  facet normal 0 0.980581 0.196116
    outer loop
      vertex 0 20 10
      vertex -20 20 10
      vertex -10 10 60
    endloop
  endfacet
  facet normal -0.980581 0 0.196116
    outer loop
      vertex -20 20 10
      vertex -20 0 10
      vertex -10 10 60
    endloop
  endfacet
  facet normal 0 -0.980581 0.196116
    outer loop
      vertex -10 10 60
      vertex -20 0 10
      vertex 0 0 10
    endloop
  endfacet
  facet normal 0.980581 0 0.196116
    outer loop
      vertex 0 20 10
      vertex -10 10 60
      vertex 0 0 10
    endloop
  endfacet
  facet normal -0.980581 0 0.196116
    outer loop
      vertex -20 30 10
      vertex -20 20 10
      vertex -10 30 60
    endloop
  endfacet
  facet normal 0 -0.980581 0.196116
    outer loop
      vertex -10 30 60
      vertex -20 20 10
      vertex 0 20 10
    endloop
  endfacet
  facet normal 0.980581 0 0.196116
    outer loop
      vertex 0 30 10
      vertex -10 30 60
      vertex 0 20 10
    endloop
  endfacet
  facet normal 0 0.980581 0.196116
    outer loop
      vertex 20 -20 10
      vertex 0 -20 10
      vertex 10 -30 60
    endloop
  endfacet
  facet normal 0.980581 0 0.196116
    outer loop
      vertex 20 -20 10
      vertex 10 -30 60
      vertex 20 -30 10
    endloop
  endfacet
  facet normal -0.980581 0 0.196116
    outer loop
      vertex 0 -20 10
      vertex 0 -30 10
      vertex 10 -30 60
    endloop
  endfacet
  facet normal 0 0.980581 0.196116
    outer loop
      vertex 20 0 10
      vertex 0 0 10
      vertex 10 -10 60
    endloop
  endfacet
  facet normal -0.980581 0 0.196116
    outer loop
      vertex 0 0 10
      vertex 0 -20 10
      vertex 10 -10 60
    endloop
  endfacet
  facet normal 0 -0.980581 0.196116
    outer loop
      vertex 10 -10 60
      vertex 0 -20 10
      vertex 20 -20 10
    endloop
  endfacet
  facet normal 0.980581 0 0.196116
    outer loop
      vertex 20 0 10
      vertex 10 -10 60
      vertex 20 -20 10
    endloop
  endfacet
  facet normal 0 0.980581 0.196116
    outer loop
      vertex 20 20 10
      vertex 0 20 10
      vertex 10 10 60
    endloop
  endfacet
  facet normal -0.980581 0 0.196116
    outer loop
      vertex 0 20 10
      vertex 0 0 10
      vertex 10 10 60
    endloop
  endfacet
  facet normal 0 -0.980581 0.196116
    outer loop
      vertex 10 10 60
      vertex 0 0 10
      vertex 20 0 10
    endloop
  endfacet
  facet normal 0.980581 0 0.196116
    outer loop
      vertex 20 20 10
      vertex 10 10 60
      vertex 20 0 10
    endloop
  endfacet
  facet normal -0.980581 0 0.196116
    outer loop
      vertex 0 30 10
      vertex 0 20 10
      vertex 10 30 60
    endloop
  endfacet
  facet normal 0 -0.980581 0.196116
    outer loop
      vertex 10 30 60
      vertex 0 20 10
      vertex 20 20 10
    endloop
  endfacet
  facet normal 0.980581 0 0.196116
    outer loop
      vertex 20 30 10
      vertex 10 30 60
      vertex 20 20 10
    endloop
  endfacet
  facet normal 0 0.980581 0.196116
    outer loop
      vertex 30 -20 10
      vertex 20 -20 10
      vertex 30 -30 60
    endloop
  endfacet
  facet normal -0.980581 0 0.196116
    outer loop
      vertex 20 -20 10
      vertex 20 -30 10
      vertex 30 -30 60
    endloop
  endfacet
  facet normal 0 0.980581 0.196116
    outer loop
      vertex 30 0 10
      vertex 20 0 10
      vertex 30 -10 60
    endloop
  endfacet
  facet normal -0.980581 0 0.196116
    outer loop
      vertex 20 0 10
      vertex 20 -20 10
      vertex 30 -10 60
    endloop
  endfacet
  facet normal 0 -0.980581 0.196116
    outer loop
      vertex 30 -10 60
      vertex 20 -20 10
      vertex 30 -20 10
    endloop
  endfacet
  facet normal 0 0.980581 0.196116
    outer loop
      vertex 30 20 10
      vertex 20 20 10
      vertex 30 10 60
    endloop
  endfacet
  facet normal -0.980581 0 0.196116
    outer loop
      vertex 20 20 10
      vertex 20 0 10
      vertex 30 10 60
    endloop
  endfacet
  facet normal 0 -0.980581 0.196116
    outer loop
      vertex 30 10 60
      vertex 20 0 10
      vertex 30 0 10
    endloop
  endfacet
  facet normal -0.980581 0 0.196116
    outer loop
      vertex 20 30 10
      vertex 20 20 10
      vertex 30 30 60
    endloop
  endfacet
  facet normal 0 -0.980581 0.196116
    outer loop
      vertex 30 30 60
      vertex 20 20 10
      vertex 30 20 10
    endloop
  endfacet
  facet normal -1 0 0
    outer loop
      vertex -30 30 0
      vertex -30 20 10
      vertex -30 30 60
    endloop
  endfacet
  facet normal -1 0 0
    outer loop
      vertex -30 20 10
      vertex -30 0 10
      vertex -30 10 60
    endloop
  endfacet
  facet normal -1 0 0
    outer loop
      vertex -30 30 0
      vertex -30 0 10
      vertex -30 20 10
    endloop
  endfacet
  facet normal -1 0 0
    outer loop
      vertex -30 0 10
      vertex -30 -20 10
      vertex -30 -10 60
    endloop
  endfacet
  facet normal -1 0 0
    outer loop
      vertex -30 -30 0
      vertex -30 0 10
      vertex -30 30 0
    endloop
  endfacet
  facet normal -1 -0 0
    outer loop
      vertex -30 0 10
      vertex -30 -30 0
      vertex -30 -20 10
    endloop
  endfacet
  facet normal -1 -0 0
    outer loop
      vertex -30 -20 10
      vertex -30 -30 0
      vertex -30 -30 60
    endloop
  endfacet
  facet normal 1 -0 0
    outer loop
      vertex 30 20 10
      vertex 30 30 0
      vertex 30 30 60
    endloop
  endfacet
  facet normal 1 0 0
    outer loop
      vertex 30 0 10
      vertex 30 20 10
      vertex 30 10 60
    endloop
  endfacet
  facet normal 1 -0 0
    outer loop
      vertex 30 0 10
      vertex 30 30 0
      vertex 30 20 10
    endloop
  endfacet
  facet normal 1 0 0
    outer loop
      vertex 30 -20 10
      vertex 30 0 10
      vertex 30 -10 60
    endloop
  endfacet
  facet normal 1 0 0
    outer loop
      vertex 30 -30 0
      vertex 30 0 10
      vertex 30 -20 10
    endloop
  endfacet
  facet normal 1 0 0
    outer loop
      vertex 30 0 10
      vertex 30 -30 0
      vertex 30 30 0
    endloop
  endfacet
  facet normal 1 0 0
    outer loop
      vertex 30 -30 0
      vertex 30 -20 10
      vertex 30 -30 60
    endloop
  endfacet
  facet normal 0 0 -1
    outer loop
      vertex -30 -30 0
      vertex 30 30 0
      vertex 30 -30 0
    endloop
  endfacet
  facet normal -0 0 -1
    outer loop
      vertex 30 30 0
      vertex -30 -30 0
      vertex -30 30 0
    endloop
  endfacet
  facet normal 0 -1 0
    outer loop
      vertex -30 -30 0
      vertex 0 -30 10
      vertex -20 -30 10
    endloop
  endfacet
  facet normal 0 -1 0
    outer loop
      vertex 30 -30 0
      vertex 0 -30 10
      vertex -30 -30 0
    endloop
  endfacet
  facet normal 0 -1 0
    outer loop
      vertex -30 -30 0
      vertex -20 -30 10
      vertex -30 -30 60
    endloop
  endfacet
  facet normal 0 -1 -0
    outer loop
      vertex -10 -30 60
      vertex -20 -30 10
      vertex 0 -30 10
    endloop
  endfacet
  facet normal 0 -1 -0
    outer loop
      vertex 10 -30 60
      vertex 0 -30 10
      vertex 20 -30 10
    endloop
  endfacet
  facet normal 0 -1 0
    outer loop
      vertex 20 -30 10
      vertex 30 -30 0
      vertex 30 -30 60
    endloop
  endfacet
  facet normal 0 -1 0
    outer loop
      vertex 0 -30 10
      vertex 30 -30 0
      vertex 20 -30 10
    endloop
  endfacet
  facet normal 0 1 0
    outer loop
      vertex 30 30 0
      vertex 0 30 10
      vertex 20 30 10
    endloop
  endfacet
  facet normal 0 1 0
    outer loop
      vertex -30 30 0
      vertex 0 30 10
      vertex 30 30 0
    endloop
  endfacet
  facet normal 0 1 -0
    outer loop
      vertex 30 30 0
      vertex 20 30 10
      vertex 30 30 60
    endloop
  endfacet
  facet normal 0 1 0
    outer loop
      vertex 10 30 60
      vertex 20 30 10
      vertex 0 30 10
    endloop
  endfacet
  facet normal 0 1 0
    outer loop
      vertex -10 30 60
      vertex 0 30 10
      vertex -20 30 10
    endloop
  endfacet
  facet normal 0 1 0
    outer loop
      vertex -20 30 10
      vertex -30 30 0
      vertex -30 30 60
    endloop
  endfacet
  facet normal 0 1 0
    outer loop
      vertex 0 30 10
      vertex -30 30 0
      vertex -20 30 10
    endloop
  endfacet
endsolid OpenSCAD_Model
